<?xml version="1.0" encoding="UTF-8" standalone="no"?>
<svg
   xmlns:dc="http://purl.org/dc/elements/1.1/"
   xmlns:cc="http://creativecommons.org/ns#"
   xmlns:rdf="http://www.w3.org/1999/02/22-rdf-syntax-ns#"
   xmlns:svg="http://www.w3.org/2000/svg"
   xmlns="http://www.w3.org/2000/svg"
   xmlns:sodipodi="http://sodipodi.sourceforge.net/DTD/sodipodi-0.dtd"
   xmlns:inkscape="http://www.inkscape.org/namespaces/inkscape"
   version="1.1"
   id="Capa_1"
   x="0px"
   y="0px"
   viewBox="0 0 45.63039 42"
   xml:space="preserve"
   sodipodi:docname="boton_menu.svg"
   width="45.63039"
   height="42"
   inkscape:version="1.0.2-2 (e86c870879, 2021-01-15)"><metadata
   id="metadata47"><rdf:RDF><cc:Work
       rdf:about=""><dc:format>image/svg+xml</dc:format><dc:type
         rdf:resource="http://purl.org/dc/dcmitype/StillImage" /><dc:title></dc:title></cc:Work></rdf:RDF></metadata><defs
   id="defs45"><inkscape:path-effect
   effect="offset"
   id="path-effect110"
   is_visible="true"
   lpeversion="1"
   linejoin_type="miter"
   unit="mm"
   offset="19.8374"
   miter_limit="4"
   attempt_force_join="true"
   update_on_knot_move="true" />
	
	
</defs><sodipodi:namedview
   pagecolor="#ffffff"
   bordercolor="#666666"
   borderopacity="1"
   objecttolerance="10"
   gridtolerance="10"
   guidetolerance="10"
   inkscape:pageopacity="0"
   inkscape:pageshadow="2"
   inkscape:window-width="1366"
   inkscape:window-height="705"
   id="namedview43"
   showgrid="false"
   inkscape:zoom="1.8862351"
   inkscape:cx="86.076677"
   inkscape:cy="23.563936"
   inkscape:window-x="-8"
   inkscape:window-y="-8"
   inkscape:window-maximized="1"
   inkscape:current-layer="Capa_1" />


<g
   id="g948"
   transform="matrix(0.06913491,0,0,0.06913491,5.1166585,3.301462)"
   style="stroke-width:14.4645"><path
     id="rect64"
     d="m 11.462891,-47.753906 c -47.308242,0 -85.472657,38.1644142 -85.472657,85.472656 v 436.5625 c 0,47.30822 38.164477,85.47266 85.472657,85.47266 H 500.53711 c 47.30816,0 85.47266,-38.1645 85.47266,-85.47266 V 37.71875 c 0,-47.3081814 -38.16444,-85.472656 -85.47266,-85.472656 z"
     style="fill:#d03b40;fill-opacity:1;stroke:none;stroke-width:27.3344;stroke-linecap:round;stop-color:#000000" /><path
     style="fill:#ded6c0;fill-opacity:1;stroke-width:14.4645"
     d="M 479.18,91.897 H 32.821 C 14.69,91.897 0,77.207 0,59.077 0,40.947 14.69,26.256 32.821,26.256 H 479.18 c 18.13,0 32.82,14.69 32.82,32.821 0,18.131 -14.69,32.82 -32.82,32.82 z"
     id="path2" /><path
     style="fill:#ded6c0;fill-opacity:1;stroke-width:14.4645"
     d="M 295.385,288.821 H 32.821 C 14.69,288.821 0,274.13 0,256 0,237.87 14.69,223.179 32.821,223.179 h 262.564 c 18.13,0 32.821,14.69 32.821,32.821 0,18.131 -14.691,32.821 -32.821,32.821 z"
     id="path4" /><path
     style="fill:#f5f0ed;fill-opacity:1;stroke-width:14.4645"
     d="m 479.18,288.821 h -52.513 c -18.13,0 -32.821,-14.69 -32.821,-32.821 0,-18.131 14.69,-32.821 32.821,-32.821 h 52.513 c 18.13,0 32.82,14.69 32.82,32.821 0,18.131 -14.69,32.821 -32.82,32.821 z"
     id="path8" /><path
     style="fill:#ded6c0;fill-opacity:1;stroke-width:14.4645"
     d="M 479.18,485.744 H 32.821 C 14.69,485.744 0,471.053 0,452.923 0,434.793 14.69,420.102 32.821,420.102 H 479.18 c 18.13,0 32.82,14.69 32.82,32.821 0,18.13 -14.69,32.821 -32.82,32.821 z"
     id="path10" /></g>
<g
   id="g12"
   transform="translate(74.009766,47.753906)">
</g>
<g
   id="g14"
   transform="translate(74.009766,47.753906)">
</g>
<g
   id="g16"
   transform="translate(74.009766,47.753906)">
</g>
<g
   id="g18"
   transform="translate(74.009766,47.753906)">
</g>
<g
   id="g20"
   transform="translate(74.009766,47.753906)">
</g>
<g
   id="g22"
   transform="translate(74.009766,47.753906)">
</g>
<g
   id="g24"
   transform="translate(74.009766,47.753906)">
</g>
<g
   id="g26"
   transform="translate(74.009766,47.753906)">
</g>
<g
   id="g28"
   transform="translate(74.009766,47.753906)">
</g>
<g
   id="g30"
   transform="translate(74.009766,47.753906)">
</g>
<g
   id="g32"
   transform="translate(74.009766,47.753906)">
</g>
<g
   id="g34"
   transform="translate(74.009766,47.753906)">
</g>
<g
   id="g36"
   transform="translate(74.009766,47.753906)">
</g>
<g
   id="g38"
   transform="translate(74.009766,47.753906)">
</g>
<g
   id="g40"
   transform="translate(74.009766,47.753906)">
</g>
</svg>
